mtllib bluecone.mtl

v  0.000000 -0.000000 -0.100000
v  0.000000 -0.000000 -0.100000
v  0.000000 -0.000000 -0.100000
v  -0.012072 -0.000000 -0.099268
v  -0.012072 -0.000000 -0.099268
v  -0.023930 -0.000000 -0.097093
v  -0.023930 -0.000000 -0.097093
v  -0.035454 -0.000000 -0.093504
v  -0.035454 -0.000000 -0.093504
v  -0.046476 -0.000000 -0.088543
v  -0.046476 -0.000000 -0.088543
v  -0.056810 -0.000000 -0.082294
v  -0.056810 -0.000000 -0.082294
v  -0.066308 -0.000000 -0.074853
v  -0.066308 -0.000000 -0.074853
v  -0.074847 -0.000000 -0.066317
v  -0.074847 -0.000000 -0.066317
v  -0.082302 -0.000000 -0.056801
v  -0.082302 -0.000000 -0.056801
v  -0.088545 -0.000000 -0.046469
v  -0.088545 -0.000000 -0.046469
v  -0.093498 -0.000000 -0.035466
v  -0.093498 -0.000000 -0.035466
v  -0.097094 -0.000000 -0.023934
v  -0.097094 -0.000000 -0.023934
v  -0.099271 -0.000000 -0.012046
v  -0.099271 -0.000000 -0.012046
v  -0.099998 0.000000 -0.000000
v  -0.099998 0.000000 -0.000000
v  -0.099271 0.000000 0.012046
v  -0.099271 0.000000 0.012046
v  -0.097094 0.000000 0.023934
v  -0.097094 0.000000 0.023934
v  -0.093498 0.000000 0.035466
v  -0.093498 0.000000 0.035466
v  -0.088545 0.000000 0.046469
v  -0.088545 0.000000 0.046469
v  -0.082302 0.000000 0.056801
v  -0.082302 0.000000 0.056801
v  -0.074847 0.000000 0.066317
v  -0.074847 0.000000 0.066317
v  -0.066308 0.000000 0.074853
v  -0.066308 0.000000 0.074853
v  -0.056810 0.000000 0.082294
v  -0.056810 0.000000 0.082294
v  -0.046476 0.000000 0.088543
v  -0.046476 0.000000 0.088543
v  -0.035454 0.000000 0.093504
v  -0.035454 0.000000 0.093504
v  -0.023930 0.000000 0.097093
v  -0.023930 0.000000 0.097093
v  -0.012072 0.000000 0.099268
v  -0.012072 0.000000 0.099268
v  0.000000 0.000000 0.100000
v  0.000000 0.000000 0.100000
v  0.000000 0.000000 0.100000
v  0.012072 0.000000 0.099268
v  0.012072 0.000000 0.099268
v  0.023930 0.000000 0.097093
v  0.023930 0.000000 0.097093
v  0.035454 0.000000 0.093504
v  0.035454 0.000000 0.093504
v  0.046476 0.000000 0.088543
v  0.046476 0.000000 0.088543
v  0.056810 0.000000 0.082294
v  0.056810 0.000000 0.082294
v  0.066308 0.000000 0.074853
v  0.066308 0.000000 0.074853
v  0.074847 0.000000 0.066317
v  0.074847 0.000000 0.066317
v  0.082302 0.000000 0.056801
v  0.082302 0.000000 0.056801
v  0.088545 0.000000 0.046469
v  0.088545 0.000000 0.046469
v  0.093498 0.000000 0.035466
v  0.093498 0.000000 0.035466
v  0.097094 0.000000 0.023934
v  0.097094 0.000000 0.023934
v  0.099271 0.000000 0.012046
v  0.099271 0.000000 0.012046
v  0.099998 0.000000 -0.000000
v  0.099998 0.000000 -0.000000
v  0.099271 -0.000000 -0.012046
v  0.099271 -0.000000 -0.012046
v  0.097094 -0.000000 -0.023934
v  0.097094 -0.000000 -0.023934
v  0.093498 -0.000000 -0.035466
v  0.093498 -0.000000 -0.035466
v  0.088545 -0.000000 -0.046469
v  0.088545 -0.000000 -0.046469
v  0.082302 -0.000000 -0.056801
v  0.082302 -0.000000 -0.056801
v  0.074847 -0.000000 -0.066317
v  0.074847 -0.000000 -0.066317
v  0.066308 -0.000000 -0.074853
v  0.066308 -0.000000 -0.074853
v  0.056810 -0.000000 -0.082294
v  0.056810 -0.000000 -0.082294
v  0.046476 -0.000000 -0.088543
v  0.046476 -0.000000 -0.088543
v  0.035454 -0.000000 -0.093504
v  0.035454 -0.000000 -0.093504
v  0.023930 -0.000000 -0.097093
v  0.023930 -0.000000 -0.097093
v  0.012072 -0.000000 -0.099268
v  0.012072 -0.000000 -0.099268
v  0.000000 0.500000 -0.000000
v  0.000000 0.500000 -0.000000
v  0.000000 0.500000 -0.000000
v  0.000000 0.500000 -0.000000

vt  0.250000 0.000000 0.000000
vt  0.250000 0.000000 0.000000
vt  0.250000 0.000000 0.000000
vt  0.000000 0.038521 0.000000
vt  0.000000 0.038521 0.000000
vt  0.000000 0.076918 0.000000
vt  0.000000 0.076918 0.000000
vt  0.000000 0.115362 0.000000
vt  0.000000 0.115362 0.000000
vt  0.000000 0.153861 0.000000
vt  0.000000 0.153861 0.000000
vt  0.000000 0.192324 0.000000
vt  0.000000 0.192324 0.000000
vt  0.000000 0.230756 0.000000
vt  0.000000 0.230756 0.000000
vt  0.000000 0.269212 0.000000
vt  0.000000 0.269212 0.000000
vt  0.000000 0.307714 0.000000
vt  0.000000 0.307714 0.000000
vt  0.000000 0.346163 0.000000
vt  0.000000 0.346163 0.000000
vt  0.000000 0.384596 0.000000
vt  0.000000 0.384596 0.000000
vt  0.000000 0.423069 0.000000
vt  0.000000 0.423069 0.000000
vt  0.000000 0.461561 0.000000
vt  0.000000 0.461561 0.000000
vt  0.000000 0.500000 0.000000
vt  0.000000 0.500000 0.000000
vt  1.000000 0.538439 0.000000
vt  1.000000 0.538439 0.000000
vt  1.000000 0.576931 0.000000
vt  1.000000 0.576931 0.000000
vt  1.000000 0.615404 0.000000
vt  1.000000 0.615404 0.000000
vt  1.000000 0.653837 0.000000
vt  1.000000 0.653837 0.000000
vt  1.000000 0.692286 0.000000
vt  1.000000 0.692286 0.000000
vt  1.000000 0.730788 0.000000
vt  1.000000 0.730788 0.000000
vt  1.000000 0.769244 0.000000
vt  1.000000 0.769244 0.000000
vt  1.000000 0.807676 0.000000
vt  1.000000 0.807676 0.000000
vt  1.000000 0.846139 0.000000
vt  1.000000 0.846139 0.000000
vt  1.000000 0.884638 0.000000
vt  1.000000 0.884638 0.000000
vt  1.000000 0.923082 0.000000
vt  1.000000 0.923082 0.000000
vt  1.000000 0.961479 0.000000
vt  1.000000 0.961479 0.000000
vt  0.750000 1.000000 0.000000
vt  0.750000 1.000000 0.000000
vt  0.750000 1.000000 0.000000
vt  0.500000 0.961479 0.000000
vt  0.500000 0.961479 0.000000
vt  0.500000 0.923082 0.000000
vt  0.500000 0.923082 0.000000
vt  0.500000 0.884638 0.000000
vt  0.500000 0.884638 0.000000
vt  0.500000 0.846139 0.000000
vt  0.500000 0.846139 0.000000
vt  0.500000 0.807676 0.000000
vt  0.500000 0.807676 0.000000
vt  0.500000 0.769244 0.000000
vt  0.500000 0.769244 0.000000
vt  0.500000 0.730788 0.000000
vt  0.500000 0.730788 0.000000
vt  0.500000 0.692286 0.000000
vt  0.500000 0.692286 0.000000
vt  0.500000 0.653837 0.000000
vt  0.500000 0.653837 0.000000
vt  0.500000 0.615404 0.000000
vt  0.500000 0.615404 0.000000
vt  0.500000 0.576931 0.000000
vt  0.500000 0.576931 0.000000
vt  0.500000 0.538439 0.000000
vt  0.500000 0.538439 0.000000
vt  0.500000 0.500000 0.000000
vt  0.500000 0.500000 0.000000
vt  0.500000 0.461561 0.000000
vt  0.500000 0.461561 0.000000
vt  0.500000 0.423069 0.000000
vt  0.500000 0.423069 0.000000
vt  0.500000 0.384596 0.000000
vt  0.500000 0.384596 0.000000
vt  0.500000 0.346163 0.000000
vt  0.500000 0.346163 0.000000
vt  0.500000 0.307714 0.000000
vt  0.500000 0.307714 0.000000
vt  0.500000 0.269212 0.000000
vt  0.500000 0.269212 0.000000
vt  0.500000 0.230756 0.000000
vt  0.500000 0.230756 0.000000
vt  0.500000 0.192324 0.000000
vt  0.500000 0.192324 0.000000
vt  0.500000 0.153861 0.000000
vt  0.500000 0.153861 0.000000
vt  0.500000 0.115362 0.000000
vt  0.500000 0.115362 0.000000
vt  0.500000 0.076918 0.000000
vt  0.500000 0.076918 0.000000
vt  0.500000 0.038521 0.000000
vt  0.500000 0.038521 0.000000
vt  0.750000 0.500000 0.000000
vt  0.750000 0.500000 0.000000
vt  0.750000 0.500000 0.000000
vt  0.750000 0.500000 0.000000

vn  0.000000 -1.000000 0.000000
vn  0.000000 0.196116 -0.980581
vn  0.000000 0.196116 -0.980581
vn  0.000000 -1.000000 0.000000
vn  -0.118196 0.196116 -0.973431
vn  0.000000 -1.000000 0.000000
vn  -0.234668 0.196116 -0.952087
vn  0.000000 -1.000000 0.000000
vn  -0.347719 0.196116 -0.916859
vn  0.000000 -1.000000 0.000000
vn  -0.455699 0.196116 -0.868261
vn  0.000000 -1.000000 0.000000
vn  -0.557033 0.196116 -0.807002
vn  0.000000 -1.000000 0.000000
vn  -0.650245 0.196116 -0.733975
vn  0.000000 -1.000000 0.000000
vn  -0.733975 0.196116 -0.650245
vn  0.000000 -1.000000 0.000000
vn  -0.807002 0.196116 -0.557033
vn  0.000000 -1.000000 0.000000
vn  -0.868261 0.196116 -0.455699
vn  0.000000 -1.000000 0.000000
vn  -0.916859 0.196116 -0.347719
vn  0.000000 -1.000000 0.000000
vn  -0.952087 0.196116 -0.234668
vn  0.000000 -1.000000 0.000000
vn  -0.973431 0.196116 -0.118196
vn  0.000000 -1.000000 0.000000
vn  -0.980581 0.196116 -0.000000
vn  0.000000 -1.000000 0.000000
vn  -0.973431 0.196116 0.118196
vn  0.000000 -1.000000 0.000000
vn  -0.952087 0.196116 0.234668
vn  0.000000 -1.000000 0.000000
vn  -0.916859 0.196116 0.347719
vn  0.000000 -1.000000 0.000000
vn  -0.868261 0.196116 0.455699
vn  0.000000 -1.000000 0.000000
vn  -0.807002 0.196116 0.557033
vn  0.000000 -1.000000 0.000000
vn  -0.733975 0.196116 0.650245
vn  0.000000 -1.000000 0.000000
vn  -0.650245 0.196116 0.733975
vn  0.000000 -1.000000 0.000000
vn  -0.557033 0.196116 0.807002
vn  0.000000 -1.000000 0.000000
vn  -0.455699 0.196116 0.868261
vn  0.000000 -1.000000 0.000000
vn  -0.347719 0.196116 0.916859
vn  0.000000 -1.000000 0.000000
vn  -0.234668 0.196116 0.952087
vn  0.000000 -1.000000 0.000000
vn  -0.118196 0.196116 0.973431
vn  0.000000 -1.000000 0.000000
vn  -0.000000 0.196116 0.980581
vn  -0.000000 0.196116 0.980581
vn  0.000000 -1.000000 0.000000
vn  0.118196 0.196116 0.973431
vn  0.000000 -1.000000 0.000000
vn  0.234668 0.196116 0.952087
vn  0.000000 -1.000000 0.000000
vn  0.347719 0.196116 0.916859
vn  0.000000 -1.000000 0.000000
vn  0.455699 0.196116 0.868261
vn  0.000000 -1.000000 0.000000
vn  0.557033 0.196116 0.807002
vn  0.000000 -1.000000 0.000000
vn  0.650245 0.196116 0.733975
vn  0.000000 -1.000000 0.000000
vn  0.733975 0.196116 0.650245
vn  0.000000 -1.000000 0.000000
vn  0.807002 0.196116 0.557033
vn  0.000000 -1.000000 0.000000
vn  0.868261 0.196116 0.455699
vn  0.000000 -1.000000 0.000000
vn  0.916859 0.196116 0.347719
vn  0.000000 -1.000000 0.000000
vn  0.952087 0.196116 0.234668
vn  0.000000 -1.000000 0.000000
vn  0.973431 0.196116 0.118196
vn  0.000000 -1.000000 0.000000
vn  0.980581 0.196116 -0.000000
vn  0.000000 -1.000000 0.000000
vn  0.973431 0.196116 -0.118196
vn  0.000000 -1.000000 0.000000
vn  0.952087 0.196116 -0.234668
vn  0.000000 -1.000000 0.000000
vn  0.916859 0.196116 -0.347719
vn  0.000000 -1.000000 0.000000
vn  0.868261 0.196116 -0.455699
vn  0.000000 -1.000000 0.000000
vn  0.807002 0.196116 -0.557033
vn  0.000000 -1.000000 0.000000
vn  0.733975 0.196116 -0.650245
vn  0.000000 -1.000000 0.000000
vn  0.650245 0.196116 -0.733975
vn  0.000000 -1.000000 0.000000
vn  0.557033 0.196116 -0.807002
vn  0.000000 -1.000000 0.000000
vn  0.455699 0.196116 -0.868261
vn  0.000000 -1.000000 0.000000
vn  0.347719 0.196116 -0.916859
vn  0.000000 -1.000000 0.000000
vn  0.234668 0.196116 -0.952087
vn  0.000000 -1.000000 0.000000
vn  0.118196 0.196116 -0.973431
vn  0.000000 0.196116 -0.980581
vn  -0.000000 0.196116 0.980581
vn  0.000000 0.196116 0.980581
vn  0.000000 0.196116 -0.980581


g 0
g 1
usemtl MTL0
f 52/52/52  4/4/4  1/1/1
f 107/107/107  2/2/2  5/5/5
f 54/54/54  52/52/52  1/1/1
f 105/105/105  54/54/54  1/1/1
f 109/109/109  106/106/106  3/3/3
f 50/50/50  6/6/6  4/4/4
f 107/107/107  5/5/5  7/7/7
f 52/52/52  50/50/50  4/4/4
f 48/48/48  8/8/8  6/6/6
f 107/107/107  7/7/7  9/9/9
f 50/50/50  48/48/48  6/6/6
f 46/46/46  10/10/10  8/8/8
f 107/107/107  9/9/9  11/11/11
f 48/48/48  46/46/46  8/8/8
f 44/44/44  12/12/12  10/10/10
f 107/107/107  11/11/11  13/13/13
f 46/46/46  44/44/44  10/10/10
f 42/42/42  14/14/14  12/12/12
f 107/107/107  13/13/13  15/15/15
f 44/44/44  42/42/42  12/12/12
f 40/40/40  16/16/16  14/14/14
f 107/107/107  15/15/15  17/17/17
f 42/42/42  40/40/40  14/14/14
f 38/38/38  18/18/18  16/16/16
f 107/107/107  17/17/17  19/19/19
f 40/40/40  38/38/38  16/16/16
f 36/36/36  20/20/20  18/18/18
f 107/107/107  19/19/19  21/21/21
f 38/38/38  36/36/36  18/18/18
f 34/34/34  22/22/22  20/20/20
f 107/107/107  21/21/21  23/23/23
f 36/36/36  34/34/34  20/20/20
f 32/32/32  24/24/24  22/22/22
f 107/107/107  23/23/23  25/25/25
f 34/34/34  32/32/32  22/22/22
f 30/30/30  26/26/26  24/24/24
f 107/107/107  25/25/25  27/27/27
f 32/32/32  30/30/30  24/24/24
f 30/30/30  28/28/28  26/26/26
f 107/107/107  27/27/27  29/29/29
f 107/107/107  29/29/29  31/31/31
f 107/107/107  31/31/31  33/33/33
f 107/107/107  33/33/33  35/35/35
f 107/107/107  35/35/35  37/37/37
f 107/107/107  37/37/37  39/39/39
f 107/107/107  39/39/39  41/41/41
f 107/107/107  41/41/41  43/43/43
f 107/107/107  43/43/43  45/45/45
f 107/107/107  45/45/45  47/47/47
f 107/107/107  47/47/47  49/49/49
f 107/107/107  49/49/49  51/51/51
f 107/107/107  51/51/51  53/53/53
f 107/107/107  53/53/53  55/55/55
f 105/105/105  57/57/57  54/54/54
f 109/109/109  56/56/56  58/58/58
f 103/103/103  59/59/59  57/57/57
f 109/109/109  58/58/58  60/60/60
f 105/105/105  103/103/103  57/57/57
f 101/101/101  61/61/61  59/59/59
f 109/109/109  60/60/60  62/62/62
f 103/103/103  101/101/101  59/59/59
f 99/99/99  63/63/63  61/61/61
f 109/109/109  62/62/62  64/64/64
f 101/101/101  99/99/99  61/61/61
f 97/97/97  65/65/65  63/63/63
f 109/109/109  64/64/64  66/66/66
f 99/99/99  97/97/97  63/63/63
f 95/95/95  67/67/67  65/65/65
f 109/109/109  66/66/66  68/68/68
f 97/97/97  95/95/95  65/65/65
f 93/93/93  69/69/69  67/67/67
f 109/109/109  68/68/68  70/70/70
f 95/95/95  93/93/93  67/67/67
f 91/91/91  71/71/71  69/69/69
f 109/109/109  70/70/70  72/72/72
f 93/93/93  91/91/91  69/69/69
f 89/89/89  73/73/73  71/71/71
f 109/109/109  72/72/72  74/74/74
f 91/91/91  89/89/89  71/71/71
f 87/87/87  75/75/75  73/73/73
f 109/109/109  74/74/74  76/76/76
f 89/89/89  87/87/87  73/73/73
f 85/85/85  77/77/77  75/75/75
f 109/109/109  76/76/76  78/78/78
f 87/87/87  85/85/85  75/75/75
f 83/83/83  79/79/79  77/77/77
f 109/109/109  78/78/78  80/80/80
f 85/85/85  83/83/83  77/77/77
f 83/83/83  81/81/81  79/79/79
f 109/109/109  80/80/80  82/82/82
f 109/109/109  82/82/82  84/84/84
f 109/109/109  84/84/84  86/86/86
f 109/109/109  86/86/86  88/88/88
f 109/109/109  88/88/88  90/90/90
f 109/109/109  90/90/90  92/92/92
f 109/109/109  92/92/92  94/94/94
f 109/109/109  94/94/94  96/96/96
f 109/109/109  96/96/96  98/98/98
f 109/109/109  98/98/98  100/100/100
f 109/109/109  100/100/100  102/102/102
f 109/109/109  102/102/102  104/104/104
f 109/109/109  104/104/104  106/106/106
